<svg xmlns="http://www.w3.org/2000/svg" width="67" height="70" viewBox="0 0 67 70"><defs><clipPath id="a"><path fill="#fff" d="M990.67 352.86l-28.81-55-28.81 55z"/></clipPath><clipPath id="b"><path fill="#fff" d="M961.5 285c18.5 0 33.5 14.87 33.5 33.21 0 18.35-15 33.22-33.5 33.22S928 336.56 928 318.2c0-18.34 15-33.21 33.5-33.21z"/></clipPath></defs><path fill="none" stroke="#fff" stroke-miterlimit="50" stroke-width="4" d="M990.67 352.86l-28.81-55-28.81 55z" clip-path="url(&quot;#a&quot;)" transform="translate(-928 -285)"/><path fill="none" stroke="#f6f7fc" stroke-miterlimit="50" stroke-width="4" d="M961.5 285c18.5 0 33.5 14.87 33.5 33.21 0 18.35-15 33.22-33.5 33.22S928 336.56 928 318.2c0-18.34 15-33.21 33.5-33.21z" clip-path="url(&quot;#b&quot;)" transform="translate(-928 -285)"/><path fill="#fff" d="M33.86 62.86c1.99 0 3.6 1.6 3.6 3.57a3.59 3.59 0 0 1-3.6 3.57c-1.99 0-3.6-1.6-3.6-3.57a3.59 3.59 0 0 1 3.6-3.57zM60.52 62.86c1.98 0 3.6 1.6 3.6 3.57a3.59 3.59 0 0 1-3.6 3.57c-2 0-3.6-1.6-3.6-3.57a3.59 3.59 0 0 1 3.6-3.57zM5.04 62.86c2 0 3.6 1.6 3.6 3.57A3.59 3.59 0 0 1 5.04 70c-1.99 0-3.6-1.6-3.6-3.57a3.59 3.59 0 0 1 3.6-3.57z"/></svg>