<svg xmlns="http://www.w3.org/2000/svg" width="81" height="85" viewBox="0 0 81 85"><path fill="#3c3c3c" d="M78.96.99H67.03c-1.12 0-2.02.9-2.02 2.02v4.17H16.86V3.01c0-1.12-.9-2.02-2.02-2.02H3.02C1.9.99 1 1.89 1 3.01v12.27c0 1.12.9 2.02 2.02 2.02h11.93c1.12 0 2.02-.9 2.02-2.02v-4.17h22.16c-.22 4.95-12.26 28.24-19.9 41.97-.46.79-.23 1.8.44 2.47 6.86 5.85 8.55 11.59 9 14.52H26.1c-1.13 0-2.03.9-2.03 2.02v9.9c0 1.13.9 2.03 2.03 2.03H56c1.12 0 2.02-.9 2.02-2.03v-9.9c0-1.12-.9-2.02-2.02-2.02h-2.59c.45-2.93 2.14-8.67 9-14.52.68-.56.9-1.68.45-2.47-7.65-13.73-19.69-37.13-19.91-41.97H65v4.17c0 1.12.9 2.02 2.02 2.02h11.93c1.12 0 2.02-.9 2.02-2.02V3.01c0-1.12-.9-2.02-2.02-2.02zM12.92 13.25H4.94V4.93h7.98zm28.13 32.97a2.54 2.54 0 0 1 2.58 2.58 2.54 2.54 0 0 1-2.58 2.59 2.54 2.54 0 0 1-2.6-2.59 2.69 2.69 0 0 1 2.6-2.58zM54.1 79.86H28.1v-5.97H54.1zm-4.62-9.91H32.61c-.45-3.26-2.14-9.78-9.23-16.42 2.7-4.95 10.8-19.8 15.64-30.83v19.92a6.44 6.44 0 0 0-4.5 6.18 6.53 6.53 0 0 0 13.05 0 6.55 6.55 0 0 0-4.5-6.18V22.59c4.95 11.03 12.94 25.88 15.64 30.94-7.09 6.64-8.78 13.16-9.23 16.42zm27.56-56.7h-7.98V9.54 9.2 5.04h7.98z"/></svg>