<svg xmlns="http://www.w3.org/2000/svg" width="80" height="77" viewBox="0 0 80 77"><path fill="#3c3c3c" d="M77.92 77H3.08A2.09 2.09 0 0 1 1 74.9V3.09c0-1.16.93-2.1 2.08-2.1h74.84c1.15 0 2.08.94 2.08 2.1V74.9c0 1.16-.93 2.1-2.08 2.1zM5.16 72.8h70.68V16.08H5.16zM75.84 5.19H5.16v6.69h70.68zM10.18 7.07c.8 0 1.45.66 1.45 1.47 0 .81-.65 1.47-1.45 1.47-.8 0-1.45-.66-1.45-1.47 0-.81.65-1.47 1.45-1.47zm4.35 0a1.46 1.46 0 0 1 0 2.93c-.8 0-1.45-.65-1.45-1.46 0-.81.65-1.47 1.45-1.47zm4.35 0c.8 0 1.45.66 1.45 1.47 0 .81-.65 1.47-1.45 1.47-.8 0-1.45-.66-1.45-1.47 0-.81.65-1.47 1.45-1.47zm11.16 43.11a1.8 1.8 0 0 1-1.28-.54l-5.66-5.71a1.85 1.85 0 0 1 0-2.6l5.65-5.71a1.82 1.82 0 0 1 2.57 0c.71.72.71 1.88 0 2.6l-4.36 4.41 4.37 4.41c.71.72.71 1.88 0 2.6a1.8 1.8 0 0 1-1.28.54zm20.92 0a1.8 1.8 0 0 1-1.28-.54 1.85 1.85 0 0 1 0-2.6l4.36-4.4-4.37-4.42a1.85 1.85 0 0 1 0-2.6 1.82 1.82 0 0 1 2.57 0l5.66 5.72a1.83 1.83 0 0 1 0 2.59l-5.65 5.71a1.8 1.8 0 0 1-1.29.54zM37.9 54.42a1.83 1.83 0 0 1-1.76-2.29l4.62-18.28a1.82 1.82 0 1 1 3.53.91l-4.63 18.28a1.82 1.82 0 0 1-1.76 1.38z"/></svg>