<svg xmlns="http://www.w3.org/2000/svg" width="80" height="91" viewBox="0 0 80 91"><path fill="#3c3c3c" d="M22.76 38.11c-.4 0-.8-.15-1.11-.45l-3.1-3.08a1.55 1.55 0 0 1 0-2.2c.61-.61 1.6-.61 2.22 0l1.99 1.97 5.08-5.05c.62-.61 1.6-.61 2.22 0 .62.61.62 1.59 0 2.2l-6.2 6.16c-.3.3-.7.45-1.1.45zm32.55-3.07H36.64c-.87 0-1.57-.7-1.57-1.56 0-.86.7-1.56 1.57-1.56H55.3c.87 0 1.57.7 1.57 1.56 0 .86-.7 1.56-1.57 1.56zM22.76 64.79c-.4 0-.8-.15-1.11-.45l-3.1-3.08a1.55 1.55 0 0 1 0-2.2c.61-.61 1.6-.61 2.22 0l1.99 1.97 5.08-5.05c.62-.61 1.6-.61 2.22 0 .62.61.62 1.6 0 2.2l-6.2 6.16c-.3.3-.7.45-1.1.45zm32.55-3.07H36.64c-.87 0-1.57-.7-1.57-1.56 0-.86.7-1.56 1.57-1.56H55.3c.87 0 1.57.7 1.57 1.56 0 .86-.7 1.56-1.57 1.56zM22.76 78.14c-.4 0-.8-.16-1.11-.46l-3.1-3.08a1.55 1.55 0 0 1 0-2.2c.61-.61 1.6-.61 2.22 0l1.99 1.97 5.08-5.05c.62-.61 1.6-.61 2.22 0 .62.61.62 1.6 0 2.21l-6.2 6.15c-.3.3-.7.46-1.1.46zm32.55-3.08H36.64c-.87 0-1.57-.7-1.57-1.56 0-.86.7-1.56 1.57-1.56H55.3c.87 0 1.57.7 1.57 1.56 0 .86-.7 1.56-1.57 1.56zM22.76 51.45c-.4 0-.8-.15-1.11-.45l-3.1-3.08a1.56 1.56 0 0 1 0-2.21c.61-.6 1.6-.6 2.22 0l1.99 1.98 5.08-5.05c.62-.61 1.6-.61 2.22 0 .62.61.62 1.59 0 2.2L23.86 51c-.3.3-.7.45-1.1.45zm32.55-3.07H36.64c-.87 0-1.57-.7-1.57-1.56 0-.86.7-1.56 1.57-1.56H55.3c.87 0 1.57.7 1.57 1.56 0 .86-.7 1.56-1.57 1.56zm24.67-34.9v75.44c0 1.15-.93 2.08-2.1 2.08H3.09c-1.16 0-2.1-.93-2.1-2.08V13.48c0-1.14.94-2.08 2.1-2.08h20.47a6.13 6.13 0 0 1 6.13-5.68h6a5.8 5.8 0 1 1 11.62 0h5.98c3.25 0 5.92 2.5 6.14 5.68H77.9c1.16 0 2.1.94 2.1 2.08zm-52.27-1.64v4.26h27.55v-4.26c0-1.08-.88-1.96-1.98-1.96h-6.54c-2 0-3.63-1.62-3.63-3.61v-.48a1.63 1.63 0 0 0-3.25 0v.48a3.63 3.63 0 0 1-3.64 3.61h-6.54c-1.09 0-1.97.88-1.97 1.96zm48.08 75V15.56H59.44v2.62c0 1.15-.93 2.08-2.1 2.08H25.63c-1.16 0-2.1-.93-2.1-2.08v-2.62H5.18v71.28zm-34.3-76.7a2 2 0 0 1 0 3.99 2 2 0 1 1 0-3.99z"/></svg>